%TF.GenerationSoftware,KiCad,Pcbnew,9.0.2*%
%TF.CreationDate,2025-05-26T20:44:28+03:00*%
%TF.ProjectId,line2,6c696e65-322e-46b6-9963-61645f706362,rev?*%
%TF.SameCoordinates,Original*%
%TF.FileFunction,Legend,Bot*%
%TF.FilePolarity,Positive*%
%FSLAX46Y46*%
G04 Gerber Fmt 4.6, Leading zero omitted, Abs format (unit mm)*
G04 Created by KiCad (PCBNEW 9.0.2) date 2025-05-26 20:44:28*
%MOMM*%
%LPD*%
G01*
G04 APERTURE LIST*
%TA.AperFunction,ComponentPad*%
%ADD10C,2.000000*%
%TD*%
%TA.AperFunction,ComponentPad*%
%ADD11R,1.700000X1.700000*%
%TD*%
%TA.AperFunction,ComponentPad*%
%ADD12C,1.700000*%
%TD*%
%ADD13C,2.000000*%
%ADD14R,1.700000X1.700000*%
%ADD15C,1.700000*%
%ADD16C,3.200000*%
%ADD17C,0.050000*%
%TA.AperFunction,Profile*%
%ADD18C,0.050000*%
%TD*%
G04 APERTURE END LIST*
D10*
%TO.P,U2,1,A*%
%TO.N,+5V*%
X184404000Y-76200000D03*
%TO.P,U2,2,K*%
%TO.N,Net-(U2-K)*%
X181864000Y-76200000D03*
%TO.P,U2,3*%
%TO.N,Net-(J1-Pin_3)*%
X184404000Y-71140000D03*
%TO.P,U2,4*%
%TO.N,GND*%
X181864000Y-71120000D03*
%TD*%
%TO.P,U1,1,A*%
%TO.N,+5V*%
X164084000Y-76200000D03*
%TO.P,U1,2,K*%
%TO.N,Net-(U1-K)*%
X161544000Y-76200000D03*
%TO.P,U1,3*%
%TO.N,Net-(J1-Pin_2)*%
X164084000Y-71140000D03*
%TO.P,U1,4*%
%TO.N,GND*%
X161544000Y-71120000D03*
%TD*%
D11*
%TO.P,J1,1,Pin_1*%
%TO.N,GND*%
X169164000Y-73660000D03*
D12*
%TO.P,J1,2,Pin_2*%
%TO.N,Net-(J1-Pin_2)*%
X171704000Y-73660000D03*
%TO.P,J1,3,Pin_3*%
%TO.N,Net-(J1-Pin_3)*%
X174244000Y-73660000D03*
%TO.P,J1,4,Pin_4*%
%TO.N,+5V*%
X176784000Y-73660000D03*
%TD*%
D13*
%TO.C,U2*%
X184404000Y-76200000D03*
X181864000Y-76200000D03*
X184404000Y-71140000D03*
X181864000Y-71120000D03*
%TD*%
%TO.C,U1*%
X164084000Y-76200000D03*
X161544000Y-76200000D03*
X164084000Y-71140000D03*
X161544000Y-71120000D03*
%TD*%
D14*
%TO.C,J1*%
X169164000Y-73660000D03*
D15*
X171704000Y-73660000D03*
X174244000Y-73660000D03*
X176784000Y-73660000D03*
%TD*%
D16*
%TO.C,REF\u002A\u002A*%
X189484000Y-73152000D03*
%TD*%
%TO.C,REF\u002A\u002A*%
X157480000Y-73152000D03*
%TD*%
D17*
%TO.C,R4*%
X173888000Y-75728000D02*
X177648000Y-75728000D01*
X173888000Y-77688000D02*
X173888000Y-75728000D01*
X177648000Y-75728000D02*
X177648000Y-77688000D01*
X177648000Y-77688000D02*
X173888000Y-77688000D01*
%TO.C,R2*%
X168786500Y-75728000D02*
X172546500Y-75728000D01*
X168786500Y-77688000D02*
X168786500Y-75728000D01*
X172546500Y-75728000D02*
X172546500Y-77688000D01*
X172546500Y-77688000D02*
X168786500Y-77688000D01*
%TO.C,R3*%
X179476000Y-72680000D02*
X183236000Y-72680000D01*
X179476000Y-74640000D02*
X179476000Y-72680000D01*
X183236000Y-72680000D02*
X183236000Y-74640000D01*
X183236000Y-74640000D02*
X179476000Y-74640000D01*
%TO.C,J1*%
X167394000Y-71890000D02*
X167394000Y-75430000D01*
X167394000Y-75430000D02*
X178554000Y-75430000D01*
X178554000Y-71890000D02*
X167394000Y-71890000D01*
X178554000Y-75430000D02*
X178554000Y-71890000D01*
%TO.C,REF\u002A\u002A*%
X192934000Y-73152000D02*
G75*
G02*
X186034000Y-73152000I-3450000J0D01*
G01*
X186034000Y-73152000D02*
G75*
G02*
X192934000Y-73152000I3450000J0D01*
G01*
X160930000Y-73152000D02*
G75*
G02*
X154030000Y-73152000I-3450000J0D01*
G01*
X154030000Y-73152000D02*
G75*
G02*
X160930000Y-73152000I3450000J0D01*
G01*
%TO.C,R1*%
X161188000Y-72680000D02*
X164948000Y-72680000D01*
X161188000Y-74640000D02*
X161188000Y-72680000D01*
X164948000Y-72680000D02*
X164948000Y-74640000D01*
X164948000Y-74640000D02*
X161188000Y-74640000D01*
%TD*%
D18*
X189484000Y-67056000D02*
G75*
G02*
X189484000Y-79248000I0J-6096000D01*
G01*
X157480000Y-79248000D02*
G75*
G02*
X157480000Y-67056000I0J6096000D01*
G01*
X189484000Y-79248000D02*
X157480000Y-79248000D01*
X157480000Y-67056000D02*
X189484000Y-67056000D01*
M02*
