%TF.GenerationSoftware,KiCad,Pcbnew,9.0.2*%
%TF.CreationDate,2025-05-26T20:44:28+03:00*%
%TF.ProjectId,line2,6c696e65-322e-46b6-9963-61645f706362,rev?*%
%TF.SameCoordinates,Original*%
%TF.FileFunction,Copper,L1,Top*%
%TF.FilePolarity,Positive*%
%FSLAX46Y46*%
G04 Gerber Fmt 4.6, Leading zero omitted, Abs format (unit mm)*
G04 Created by KiCad (PCBNEW 9.0.2) date 2025-05-26 20:44:28*
%MOMM*%
%LPD*%
G01*
G04 APERTURE LIST*
G04 Aperture macros list*
%AMRoundRect*
0 Rectangle with rounded corners*
0 $1 Rounding radius*
0 $2 $3 $4 $5 $6 $7 $8 $9 X,Y pos of 4 corners*
0 Add a 4 corners polygon primitive as box body*
4,1,4,$2,$3,$4,$5,$6,$7,$8,$9,$2,$3,0*
0 Add four circle primitives for the rounded corners*
1,1,$1+$1,$2,$3*
1,1,$1+$1,$4,$5*
1,1,$1+$1,$6,$7*
1,1,$1+$1,$8,$9*
0 Add four rect primitives between the rounded corners*
20,1,$1+$1,$2,$3,$4,$5,0*
20,1,$1+$1,$4,$5,$6,$7,0*
20,1,$1+$1,$6,$7,$8,$9,0*
20,1,$1+$1,$8,$9,$2,$3,0*%
G04 Aperture macros list end*
%TA.AperFunction,ComponentPad*%
%ADD10C,2.000000*%
%TD*%
%TA.AperFunction,SMDPad,CuDef*%
%ADD11RoundRect,0.250000X0.337500X0.475000X-0.337500X0.475000X-0.337500X-0.475000X0.337500X-0.475000X0*%
%TD*%
%TA.AperFunction,SMDPad,CuDef*%
%ADD12RoundRect,0.250000X-0.337500X-0.475000X0.337500X-0.475000X0.337500X0.475000X-0.337500X0.475000X0*%
%TD*%
%TA.AperFunction,ComponentPad*%
%ADD13R,1.700000X1.700000*%
%TD*%
%TA.AperFunction,ComponentPad*%
%ADD14C,1.700000*%
%TD*%
%TA.AperFunction,Conductor*%
%ADD15C,0.400000*%
%TD*%
%ADD16C,2.000000*%
%ADD17R,1.700000X1.700000*%
%ADD18C,1.700000*%
%ADD19C,3.200000*%
%ADD20C,0.050000*%
%TA.AperFunction,Profile*%
%ADD21C,0.050000*%
%TD*%
G04 APERTURE END LIST*
D10*
%TO.P,U2,1,A*%
%TO.N,+5V*%
X184404000Y-76200000D03*
%TO.P,U2,2,K*%
%TO.N,Net-(U2-K)*%
X181864000Y-76200000D03*
%TO.P,U2,3*%
%TO.N,Net-(J1-Pin_3)*%
X184404000Y-71140000D03*
%TO.P,U2,4*%
%TO.N,GND*%
X181864000Y-71120000D03*
%TD*%
%TO.P,U1,1,A*%
%TO.N,+5V*%
X164084000Y-76200000D03*
%TO.P,U1,2,K*%
%TO.N,Net-(U1-K)*%
X161544000Y-76200000D03*
%TO.P,U1,3*%
%TO.N,Net-(J1-Pin_2)*%
X164084000Y-71140000D03*
%TO.P,U1,4*%
%TO.N,GND*%
X161544000Y-71120000D03*
%TD*%
D11*
%TO.P,R4,1*%
%TO.N,+5V*%
X176805500Y-76708000D03*
%TO.P,R4,2*%
%TO.N,Net-(J1-Pin_3)*%
X174730500Y-76708000D03*
%TD*%
D12*
%TO.P,R2,1*%
%TO.N,+5V*%
X169629000Y-76708000D03*
%TO.P,R2,2*%
%TO.N,Net-(J1-Pin_2)*%
X171704000Y-76708000D03*
%TD*%
D11*
%TO.P,R3,1*%
%TO.N,Net-(U2-K)*%
X182393500Y-73660000D03*
%TO.P,R3,2*%
%TO.N,GND*%
X180318500Y-73660000D03*
%TD*%
D13*
%TO.P,J1,1,Pin_1*%
%TO.N,GND*%
X169164000Y-73660000D03*
D14*
%TO.P,J1,2,Pin_2*%
%TO.N,Net-(J1-Pin_2)*%
X171704000Y-73660000D03*
%TO.P,J1,3,Pin_3*%
%TO.N,Net-(J1-Pin_3)*%
X174244000Y-73660000D03*
%TO.P,J1,4,Pin_4*%
%TO.N,+5V*%
X176784000Y-73660000D03*
%TD*%
D12*
%TO.P,R1,1*%
%TO.N,Net-(U1-K)*%
X162030500Y-73660000D03*
%TO.P,R1,2*%
%TO.N,GND*%
X164105500Y-73660000D03*
%TD*%
D15*
%TO.N,Net-(U1-K)*%
X162030500Y-75713500D02*
X161544000Y-76200000D01*
X162030500Y-73660000D02*
X162030500Y-75713500D01*
%TO.N,+5V*%
X182372000Y-78232000D02*
X176805500Y-78232000D01*
X167132000Y-76708000D02*
X166624000Y-76200000D01*
X176805500Y-76708000D02*
X176805500Y-73681500D01*
X184404000Y-76200000D02*
X182372000Y-78232000D01*
X169629000Y-76708000D02*
X167132000Y-76708000D01*
X176805500Y-73681500D02*
X176784000Y-73660000D01*
X176805500Y-78232000D02*
X170180000Y-78232000D01*
X166624000Y-76200000D02*
X164084000Y-76200000D01*
X170180000Y-78232000D02*
X169629000Y-77681000D01*
X176805500Y-78232000D02*
X176805500Y-76708000D01*
X169629000Y-77681000D02*
X169629000Y-76708000D01*
%TO.N,GND*%
X185323000Y-72741000D02*
X186005000Y-72059000D01*
X182119844Y-71120000D02*
X183740844Y-72741000D01*
X161544000Y-71120000D02*
X163946000Y-68718000D01*
X169164000Y-68718000D02*
X169164000Y-73660000D01*
X184246156Y-68718000D02*
X168402000Y-68718000D01*
X163946000Y-68718000D02*
X168402000Y-68718000D01*
X180318500Y-73660000D02*
X180318500Y-72665500D01*
X181864000Y-71120000D02*
X182119844Y-71120000D01*
X186005000Y-72059000D02*
X186005000Y-70476844D01*
X168402000Y-68718000D02*
X169164000Y-68718000D01*
X180318500Y-72665500D02*
X181864000Y-71120000D01*
X164084000Y-73660000D02*
X161544000Y-71120000D01*
X186005000Y-70476844D02*
X184246156Y-68718000D01*
X183740844Y-72741000D02*
X185323000Y-72741000D01*
X164105500Y-73660000D02*
X164084000Y-73660000D01*
%TO.N,Net-(J1-Pin_2)*%
X164084000Y-71140000D02*
X166951000Y-74007000D01*
X166951000Y-75003000D02*
X167330000Y-75382000D01*
X166951000Y-74007000D02*
X166951000Y-75003000D01*
X170378000Y-75382000D02*
X167330000Y-75382000D01*
X171704000Y-76708000D02*
X171704000Y-73660000D01*
X171704000Y-76708000D02*
X170378000Y-75382000D01*
%TO.N,Net-(J1-Pin_3)*%
X182783000Y-69519000D02*
X175845000Y-69519000D01*
X174244000Y-76221500D02*
X174730500Y-76708000D01*
X174244000Y-73660000D02*
X174244000Y-76221500D01*
X174244000Y-71120000D02*
X174244000Y-73660000D01*
X175845000Y-69519000D02*
X174244000Y-71120000D01*
X184404000Y-71140000D02*
X182783000Y-69519000D01*
%TO.N,Net-(U2-K)*%
X182393500Y-75670500D02*
X181864000Y-76200000D01*
X182393500Y-73660000D02*
X182393500Y-75670500D01*
%TD*%
D10*
%TO.P,U2,1,A*%
%TO.N,+5V*%
X184404000Y-76200000D03*
%TO.P,U2,2,K*%
%TO.N,Net-(U2-K)*%
X181864000Y-76200000D03*
%TO.P,U2,3*%
%TO.N,Net-(J1-Pin_3)*%
X184404000Y-71140000D03*
%TO.P,U2,4*%
%TO.N,GND*%
X181864000Y-71120000D03*
%TD*%
%TO.P,U1,1,A*%
%TO.N,+5V*%
X164084000Y-76200000D03*
%TO.P,U1,2,K*%
%TO.N,Net-(U1-K)*%
X161544000Y-76200000D03*
%TO.P,U1,3*%
%TO.N,Net-(J1-Pin_2)*%
X164084000Y-71140000D03*
%TO.P,U1,4*%
%TO.N,GND*%
X161544000Y-71120000D03*
%TD*%
D13*
%TO.P,J1,1,Pin_1*%
%TO.N,GND*%
X169164000Y-73660000D03*
D14*
%TO.P,J1,2,Pin_2*%
%TO.N,Net-(J1-Pin_2)*%
X171704000Y-73660000D03*
%TO.P,J1,3,Pin_3*%
%TO.N,Net-(J1-Pin_3)*%
X174244000Y-73660000D03*
%TO.P,J1,4,Pin_4*%
%TO.N,+5V*%
X176784000Y-73660000D03*
%TD*%
D16*
%TO.C,U2*%
X184404000Y-76200000D03*
X181864000Y-76200000D03*
X184404000Y-71140000D03*
X181864000Y-71120000D03*
%TD*%
%TO.C,U1*%
X164084000Y-76200000D03*
X161544000Y-76200000D03*
X164084000Y-71140000D03*
X161544000Y-71120000D03*
%TD*%
D17*
%TO.C,J1*%
X169164000Y-73660000D03*
D18*
X171704000Y-73660000D03*
X174244000Y-73660000D03*
X176784000Y-73660000D03*
%TD*%
D19*
%TO.C,REF\u002A\u002A*%
X189484000Y-73152000D03*
%TD*%
%TO.C,REF\u002A\u002A*%
X157480000Y-73152000D03*
%TD*%
D20*
%TO.C,R4*%
X173888000Y-75728000D02*
X177648000Y-75728000D01*
X173888000Y-77688000D02*
X173888000Y-75728000D01*
X177648000Y-75728000D02*
X177648000Y-77688000D01*
X177648000Y-77688000D02*
X173888000Y-77688000D01*
%TO.C,R2*%
X168786500Y-75728000D02*
X172546500Y-75728000D01*
X168786500Y-77688000D02*
X168786500Y-75728000D01*
X172546500Y-75728000D02*
X172546500Y-77688000D01*
X172546500Y-77688000D02*
X168786500Y-77688000D01*
%TO.C,R3*%
X179476000Y-72680000D02*
X183236000Y-72680000D01*
X179476000Y-74640000D02*
X179476000Y-72680000D01*
X183236000Y-72680000D02*
X183236000Y-74640000D01*
X183236000Y-74640000D02*
X179476000Y-74640000D01*
%TO.C,J1*%
X167394000Y-71890000D02*
X167394000Y-75430000D01*
X167394000Y-75430000D02*
X178554000Y-75430000D01*
X178554000Y-71890000D02*
X167394000Y-71890000D01*
X178554000Y-75430000D02*
X178554000Y-71890000D01*
%TO.C,REF\u002A\u002A*%
X192934000Y-73152000D02*
G75*
G02*
X186034000Y-73152000I-3450000J0D01*
G01*
X186034000Y-73152000D02*
G75*
G02*
X192934000Y-73152000I3450000J0D01*
G01*
X160930000Y-73152000D02*
G75*
G02*
X154030000Y-73152000I-3450000J0D01*
G01*
X154030000Y-73152000D02*
G75*
G02*
X160930000Y-73152000I3450000J0D01*
G01*
%TO.C,R1*%
X161188000Y-72680000D02*
X164948000Y-72680000D01*
X161188000Y-74640000D02*
X161188000Y-72680000D01*
X164948000Y-72680000D02*
X164948000Y-74640000D01*
X164948000Y-74640000D02*
X161188000Y-74640000D01*
%TD*%
D21*
X189484000Y-67056000D02*
G75*
G02*
X189484000Y-79248000I0J-6096000D01*
G01*
X157480000Y-79248000D02*
G75*
G02*
X157480000Y-67056000I0J6096000D01*
G01*
X189484000Y-79248000D02*
X157480000Y-79248000D01*
X157480000Y-67056000D02*
X189484000Y-67056000D01*
M02*
